# Blender 4.1.1
# www.blender.org
mtllib battery.mtl
o battery
v -0.000000 0.005486 -0.077912
v 0.060914 0.005486 -0.048577
v 0.075959 0.005486 0.017337
v 0.033805 0.005486 0.070197
v -0.033805 0.005486 0.070197
v -0.075959 0.005486 0.017337
v -0.060914 0.005486 -0.048577
v 0.062391 0.356660 -0.049755
v -0.000000 0.356660 -0.079801
v 0.077800 0.356660 0.017758
v 0.034624 0.356660 0.071899
v -0.034624 0.356660 0.071899
v -0.077800 0.356660 0.017758
v -0.062391 0.356660 -0.049755
v -0.000000 0.005486 -0.103557
v 0.080964 0.005486 -0.064567
v 0.100961 0.005486 0.023044
v 0.044932 0.005486 0.093302
v -0.044932 0.005486 0.093302
v -0.100961 0.005486 0.023044
v -0.080964 0.005486 -0.064567
v -0.000000 -0.000000 -0.077912
v 0.060914 -0.000000 -0.048577
v 0.075959 -0.000000 0.017337
v 0.033805 -0.000000 0.070197
v -0.033805 -0.000000 0.070197
v -0.075959 -0.000000 0.017337
v -0.060914 -0.000000 -0.048577
v 0.080964 0.356660 -0.064567
v -0.000000 0.356660 -0.103557
v 0.100961 0.356660 0.023044
v 0.044932 0.356660 0.093302
v -0.044932 0.356660 0.093302
v -0.100961 0.356660 0.023044
v -0.080964 0.356660 -0.064567
v 0.023419 0.361485 -0.018676
v -0.000000 0.361485 -0.029954
v 0.029203 0.361485 0.006666
v 0.012997 0.361485 0.026988
v -0.012997 0.361485 0.026988
v -0.029203 0.361485 0.006666
v -0.023419 0.361485 -0.018676
v 0.062391 0.361485 -0.049755
v -0.000000 0.361485 -0.079801
v 0.077800 0.361485 0.017758
v 0.034624 0.361485 0.071899
v -0.034624 0.361485 0.071899
v -0.077800 0.361485 0.017758
v -0.062391 0.361485 -0.049755
v 0.023419 0.379624 -0.018676
v -0.000000 0.379624 -0.029954
v 0.029203 0.379624 0.006666
v 0.012997 0.379624 0.026988
v -0.012997 0.379624 0.026988
v -0.029203 0.379624 0.006666
v -0.023419 0.379624 -0.018676
v -0.000000 0.248860 -0.103557
v 0.080964 0.248860 -0.064567
v 0.100961 0.248860 0.023044
v 0.044932 0.248860 0.093302
v -0.044932 0.248860 0.093302
v -0.100961 0.248860 0.023044
v -0.080964 0.248860 -0.064567
vn 0.4339 -0.0000 -0.9010
vn 0.9749 -0.0000 -0.2225
vn 0.7818 -0.0000 0.6235
vn -0.0000 -0.0000 1.0000
vn -0.7818 -0.0000 0.6235
vn -0.9749 -0.0000 -0.2225
vn -0.4339 -0.0000 -0.9010
vn -0.0000 -1.0000 -0.0000
vn -0.0000 1.0000 -0.0000
vt 1.000000 0.846514
vt 1.000000 1.000000
vt 0.857143 1.000000
vt 0.857143 0.846514
vt 0.714286 1.000000
vt 0.714286 0.846514
vt 0.571429 1.000000
vt 0.571429 0.846514
vt 0.428571 1.000000
vt 0.428571 0.846514
vt 0.285714 1.000000
vt 0.285714 0.846514
vt 0.142857 1.000000
vt 0.142857 0.846514
vt 0.000000 1.000000
vt 0.000000 0.846514
vt 0.904494 0.373205
vt 0.942650 0.206029
vt 0.750000 0.447605
vt 0.750000 0.490000
vt 0.937640 0.399638
vt 0.983983 0.196595
vt 0.835738 0.071964
vt 0.854132 0.033767
vt 0.664262 0.071964
vt 0.645868 0.033767
vt 0.557349 0.206029
vt 0.516017 0.196595
vt 0.595506 0.373205
vt 0.562360 0.399638
vt 0.428571 1.000000
vt 0.559891 1.000000
vt 0.110103 1.000000
vt 0.747039 1.000000
vt 0.687423 1.000000
vt 0.297252 1.000000
vt 0.169720 1.000000
vt 0.545443 1.000000
vt 0.650156 1.000000
vt 0.207504 1.000000
vt 0.649639 1.000000
vt 0.311700 1.000000
vt 0.206987 1.000000
vt 0.142857 0.500000
vt 0.000000 0.500000
vt 0.285714 0.500000
vt 0.428571 0.500000
vt 0.571429 0.500000
vt 0.714286 0.500000
vt 0.857143 0.500000
vt 1.000000 0.500000
s 0
usemtl Material.013
f 2/17/8 1/19/8 15/20/8 16/21/8
f 3/18/8 2/17/8 16/21/8 17/22/8
f 4/23/8 3/18/8 17/22/8 18/24/8
f 5/25/8 4/23/8 18/24/8 19/26/8
f 6/27/8 5/25/8 19/26/8 20/28/8
f 7/29/8 6/27/8 20/28/8 21/30/8
f 1/19/8 7/29/8 21/30/8 15/20/8
f 21/44/7 63/14/7 57/16/7 15/45/7
f 20/46/6 62/12/6 63/14/6 21/44/6
f 19/47/5 61/10/5 62/12/5 20/46/5
f 18/48/4 60/8/4 61/10/4 19/47/4
f 17/49/3 59/6/3 60/8/3 18/48/3
f 16/50/2 58/4/2 59/6/2 17/49/2
f 15/51/1 57/1/1 58/4/1 16/50/1
usemtl Material.014
f 57/1/1 30/2/1 29/3/1 58/4/1
f 58/4/2 29/3/2 31/5/2 59/6/2
f 59/6/3 31/5/3 32/7/3 60/8/3
f 60/8/4 32/7/4 33/9/4 61/10/4
f 61/10/5 33/9/5 34/11/5 62/12/5
f 62/12/6 34/11/6 35/13/6 63/14/6
f 63/14/7 35/13/7 30/15/7 57/16/7
f 9/33/9 8/34/9 29/3/9 30/15/9
f 8/34/9 10/35/9 31/5/9 29/3/9
f 10/35/9 11/32/9 32/7/9 31/5/9
f 11/32/9 12/31/9 33/9/9 32/7/9
f 12/31/9 13/36/9 34/11/9 33/9/9
f 13/36/9 14/37/9 35/13/9 34/11/9
f 14/37/9 9/33/9 30/15/9 35/13/9
usemtl Material.015
f 2/17/2 3/18/2 24/18/2 23/17/2
f 22/19/8 23/17/8 24/18/8 25/23/8 26/25/8 27/27/8 28/29/8
f 7/29/7 1/19/7 22/19/7 28/29/7
f 5/25/5 6/27/5 27/27/5 26/25/5
f 3/18/3 4/23/3 25/23/3 24/18/3
f 1/19/1 2/17/1 23/17/1 22/19/1
f 6/27/6 7/29/6 28/29/6 27/27/6
f 4/23/4 5/25/4 26/25/4 25/23/4
f 12/31/4 11/32/4 46/32/4 47/31/4
f 39/38/3 38/39/3 52/39/3 53/38/3
f 10/35/2 8/34/2 43/34/2 45/35/2
f 9/33/7 14/37/7 49/37/7 44/33/7
f 13/36/5 12/31/5 47/31/5 48/36/5
f 11/32/3 10/35/3 45/35/3 46/32/3
f 8/34/1 9/33/1 44/33/1 43/34/1
f 14/37/6 13/36/6 48/36/6 49/37/6
f 37/40/9 36/41/9 43/34/9 44/33/9
f 36/41/9 38/39/9 45/35/9 43/34/9
f 38/39/9 39/38/9 46/32/9 45/35/9
f 39/38/9 40/31/9 47/31/9 46/32/9
f 40/31/9 41/42/9 48/36/9 47/31/9
f 41/42/9 42/43/9 49/37/9 48/36/9
f 42/43/9 37/40/9 44/33/9 49/37/9
f 50/41/9 51/40/9 56/43/9 55/42/9 54/31/9 53/38/9 52/39/9
f 36/41/1 37/40/1 51/40/1 50/41/1
f 42/43/6 41/42/6 55/42/6 56/43/6
f 40/31/4 39/38/4 53/38/4 54/31/4
f 38/39/2 36/41/2 50/41/2 52/39/2
f 37/40/7 42/43/7 56/43/7 51/40/7
f 41/42/5 40/31/5 54/31/5 55/42/5
