# Blender 4.1.1
# www.blender.org
mtllib bolt1.mtl
o Bolt.002
v -0.117174 0.244260 -0.251280
v -0.291775 0.213097 -0.197631
v -0.291741 0.244267 -0.189138
v -0.117174 0.244267 -0.251278
v -0.117173 0.244253 -0.251282
v -0.286503 0.182873 -0.207755
v -0.117171 0.244246 -0.251285
v -0.276085 0.154516 -0.219201
v -0.294272 0.211410 -0.192772
v -0.292460 0.243977 -0.187683
v -0.294240 0.175252 -0.192684
v -0.292080 0.132505 -0.186615
v -0.285835 0.204943 -0.169071
v -0.283089 0.236793 -0.161358
v -0.288757 0.171049 -0.177280
v -0.246056 0.174450 -0.057323
v -0.248978 0.140556 -0.065532
v -0.252301 0.102012 -0.074866
v -0.243345 0.174934 -0.058156
v -0.243310 0.206300 -0.049609
v -0.238040 0.144520 -0.068343
v -0.227557 0.115984 -0.079862
v -0.068704 0.206104 -0.111817
v -0.068704 0.206300 -0.111764
v -0.068671 0.205914 -0.111881
v -0.068605 0.205736 -0.111953
v -0.068176 0.206737 -0.113756
v -0.286401 0.275437 -0.182533
v -0.117173 0.244274 -0.251276
v -0.275918 0.305661 -0.178018
v -0.117171 0.244281 -0.251275
v -0.260610 0.334018 -0.175728
v -0.117167 0.244288 -0.251275
v -0.288780 0.275111 -0.177344
v -0.282905 0.306741 -0.160840
v -0.274099 0.341081 -0.136101
v -0.280343 0.268643 -0.153644
v -0.277421 0.302538 -0.145435
v -0.240565 0.238150 -0.041896
v -0.237643 0.272045 -0.033687
v -0.234320 0.310588 -0.024352
v -0.237937 0.237667 -0.042963
v -0.227388 0.268080 -0.038419
v -0.211984 0.296616 -0.036116
v -0.068670 0.206496 -0.111722
v -0.068604 0.206686 -0.111694
v -0.068508 0.206865 -0.111679
v -0.117157 0.244299 -0.251275
v -0.217515 0.381774 -0.178038
v -0.191036 0.399721 -0.182566
v -0.117151 0.244303 -0.251276
v -0.240943 0.359649 -0.175735
v -0.218391 0.383767 -0.172751
v -0.191122 0.400409 -0.181071
v -0.245452 0.364556 -0.158396
v -0.209955 0.377300 -0.149051
v -0.181751 0.393225 -0.154745
v -0.239968 0.360353 -0.142991
v -0.170176 0.346807 -0.037303
v -0.200189 0.329860 -0.031243
v -0.168617 0.344672 -0.038440
v -0.141972 0.362732 -0.042997
v -0.192194 0.322408 -0.036123
v -0.068237 0.207165 -0.111694
v -0.068070 0.207278 -0.111722
v -0.068384 0.207026 -0.111679
v -0.162311 0.412945 -0.189183
v -0.117144 0.244306 -0.251278
v -0.132214 0.421043 -0.197687
v -0.117138 0.244308 -0.251280
v -0.101659 0.423770 -0.207819
v -0.117131 0.244308 -0.251282
v -0.161984 0.415617 -0.184139
v -0.129017 0.430301 -0.181903
v -0.089403 0.445369 -0.173389
v -0.153547 0.409150 -0.160439
v -0.123533 0.426097 -0.166498
v -0.113768 0.378657 -0.048691
v -0.083755 0.395604 -0.054750
v -0.049624 0.414876 -0.061641
v -0.052033 0.386932 -0.068408
v -0.113067 0.376039 -0.049655
v -0.082781 0.384188 -0.058212
v -0.067890 0.207361 -0.111764
v -0.067700 0.207412 -0.111817
v -0.067508 0.207429 -0.111881
v -0.117117 0.244306 -0.251288
v -0.042873 0.412945 -0.231699
v -0.016429 0.399721 -0.244721
v -0.117111 0.244303 -0.251291
v -0.117124 0.244308 -0.251285
v -0.071574 0.421043 -0.219273
v -0.039941 0.415617 -0.227583
v -0.015417 0.400409 -0.243616
v -0.064079 0.430301 -0.205019
v -0.031504 0.409150 -0.203882
v -0.006046 0.393225 -0.217290
v -0.058596 0.426097 -0.189614
v 0.008275 0.378657 -0.092134
v -0.018817 0.395604 -0.077866
v 0.007122 0.376039 -0.092438
v 0.033733 0.362732 -0.105542
v -0.021759 0.384188 -0.079934
v -0.067139 0.207361 -0.112031
v -0.066972 0.207278 -0.112113
v -0.067319 0.207412 -0.111953
v 0.006955 0.381774 -0.257942
v -0.117106 0.244299 -0.251294
v 0.026569 0.359649 -0.270961
v -0.117101 0.244294 -0.251297
v 0.041817 0.334018 -0.283383
v 0.010975 0.383767 -0.254398
v 0.041020 0.364556 -0.260370
v 0.077311 0.341081 -0.261191
v 0.019412 0.377300 -0.230698
v 0.046503 0.360353 -0.244966
v 0.059191 0.346807 -0.118950
v 0.086282 0.329860 -0.133218
v 0.117090 0.310588 -0.149443
v 0.057264 0.344672 -0.118846
v 0.077002 0.322408 -0.131948
v 0.092345 0.296616 -0.144447
v -0.066825 0.207165 -0.112196
v -0.066702 0.207026 -0.112278
v -0.066606 0.206865 -0.112356
v -0.117094 0.244274 -0.251304
v 0.057507 0.275437 -0.304953
v 0.057473 0.244267 -0.313446
v -0.117094 0.244267 -0.251306
v -0.117095 0.244281 -0.251302
v 0.052235 0.305661 -0.294830
v 0.062630 0.275111 -0.302435
v 0.058949 0.243977 -0.312774
v 0.068505 0.306741 -0.285930
v 0.071066 0.268644 -0.278735
v 0.068320 0.236793 -0.286448
v 0.073988 0.302538 -0.270526
v 0.110845 0.238151 -0.166986
v 0.113767 0.272045 -0.158778
v 0.108134 0.237667 -0.166153
v 0.108099 0.206300 -0.174700
v 0.102829 0.268080 -0.155966
v -0.066507 0.206496 -0.112492
v -0.066507 0.206300 -0.112546
v -0.066540 0.206686 -0.112428
v 0.052133 0.213097 -0.320051
v -0.117095 0.244260 -0.251308
v 0.041650 0.182873 -0.324567
v -0.117098 0.244253 -0.251309
v 0.026342 0.154516 -0.326856
v -0.117101 0.244246 -0.251309
v 0.057138 0.211410 -0.317862
v 0.057169 0.175252 -0.317775
v 0.059330 0.132505 -0.311705
v 0.065575 0.204943 -0.294162
v 0.062653 0.171049 -0.302370
v 0.105353 0.174450 -0.182414
v 0.102431 0.140556 -0.190622
v 0.099109 0.102012 -0.199957
v 0.102726 0.174934 -0.181346
v 0.092177 0.144521 -0.185890
v 0.076773 0.115984 -0.188194
v -0.066541 0.206104 -0.112587
v -0.066607 0.205914 -0.112615
v -0.066703 0.205736 -0.112630
v -0.117111 0.244235 -0.251309
v -0.016754 0.106760 -0.324546
v -0.043232 0.088813 -0.320018
v -0.117117 0.244231 -0.251308
v -0.117106 0.244240 -0.251309
v 0.006675 0.128885 -0.326849
v -0.013251 0.102754 -0.322455
v -0.042389 0.087545 -0.319386
v 0.019716 0.117437 -0.320219
v -0.004814 0.096287 -0.298755
v -0.033018 0.080361 -0.293061
v 0.025199 0.113234 -0.304814
v 0.034965 0.065794 -0.187007
v 0.064978 0.082741 -0.193066
v 0.033406 0.067928 -0.185869
v 0.006761 0.049868 -0.181313
v 0.056982 0.090192 -0.188187
v -0.066974 0.205435 -0.112615
v -0.067141 0.205323 -0.112587
v -0.066827 0.205575 -0.112630
v -0.071957 0.075589 -0.313401
v -0.117124 0.244228 -0.251306
v -0.102054 0.067491 -0.304897
v -0.117131 0.244226 -0.251304
v -0.132609 0.064764 -0.294765
v -0.117138 0.244226 -0.251302
v -0.069658 0.070904 -0.311067
v -0.096719 0.051693 -0.296712
v -0.125366 0.028218 -0.274417
v -0.061222 0.064436 -0.287367
v -0.091235 0.047489 -0.281307
v -0.021443 0.033943 -0.175618
v -0.051457 0.016996 -0.169559
v -0.085587 -0.002275 -0.162668
v -0.083178 0.025668 -0.155901
v -0.022144 0.036562 -0.174654
v -0.052430 0.028413 -0.166097
v -0.067321 0.205239 -0.112545
v -0.067511 0.205188 -0.112492
v -0.067703 0.205171 -0.112428
v -0.117151 0.244228 -0.251297
v -0.191395 0.075589 -0.270885
v -0.217839 0.088813 -0.257863
v -0.117157 0.244231 -0.251294
v -0.117145 0.244226 -0.251299
v -0.162694 0.067491 -0.283311
v -0.191701 0.070904 -0.267624
v -0.218094 0.087545 -0.256841
v -0.161657 0.051693 -0.273596
v -0.183265 0.064436 -0.243923
v -0.208723 0.080361 -0.230516
v -0.156173 0.047489 -0.258191
v -0.143486 0.033943 -0.132175
v -0.116394 0.016996 -0.146443
v -0.142333 0.036562 -0.131871
v -0.168944 0.049868 -0.118767
v -0.113452 0.028413 -0.144375
v -0.068073 0.205239 -0.112278
v -0.068239 0.205323 -0.112196
v -0.067892 0.205188 -0.112356
v -0.241224 0.106760 -0.244642
v -0.117163 0.244235 -0.251291
v -0.260838 0.128885 -0.231623
v -0.242617 0.102754 -0.240808
v -0.266756 0.117437 -0.218244
v -0.234181 0.096287 -0.217108
v -0.261272 0.113234 -0.202840
v -0.194402 0.065794 -0.105360
v -0.221493 0.082741 -0.091091
v -0.192475 0.067928 -0.105463
v -0.212213 0.090192 -0.092362
v -0.068386 0.205435 -0.112113
v -0.068509 0.205575 -0.112031
v -0.151827 0.109686 -0.110461
v -0.188923 0.206737 -0.070774
v -0.051740 0.085717 -0.152630
v 0.035970 0.152878 -0.165525
v 0.045257 0.260596 -0.139438
v -0.030874 0.327758 -0.094011
v -0.135093 0.303788 -0.063453
v -0.188696 0.206563 -0.070137
v 0.046877 0.259355 -0.134886
v -0.126993 0.297579 -0.040697
v -0.025787 0.323858 -0.079720
v -0.177355 0.197870 -0.038278
v -0.148587 0.107202 -0.101359
v -0.045260 0.080749 -0.134425
v 0.045691 0.145427 -0.138218
v -0.014673 0.315339 -0.048499
v 0.058444 0.250487 -0.102391
v -0.115425 0.288711 -0.008201
v -0.166014 0.189177 -0.006420
v -0.135078 0.100587 -0.068940
v -0.034455 0.077498 -0.100125
v 0.050009 0.140308 -0.102118
v 0.059257 0.236795 -0.068148
v -0.007433 0.292431 -0.018294
v -0.094769 0.266507 0.016655
v -0.135062 0.180483 0.018458
v 0.008009 0.297952 0.015219
v -0.092971 0.271499 0.054879
v -0.143560 0.171964 0.056661
v -0.125679 0.089642 -0.037004
v -0.022352 0.063188 -0.070070
v 0.068599 0.127866 -0.073863
v 0.081126 0.233101 -0.038673
v -0.013907 0.074325 -0.032535
v 0.073816 0.215833 -0.003281
v -0.112607 0.163270 0.081538
v -0.100751 0.096712 -0.005681
v 0.063024 0.127921 -0.033596
v 0.013517 0.269429 0.044507
v -0.070535 0.246868 0.079205
v -0.103224 0.072429 0.026076
v 0.000103 0.045976 -0.006990
v -0.070290 0.254112 0.118597
v 0.091280 0.110479 -0.010146
v 0.103807 0.215714 0.025044
v 0.030917 0.280391 0.079573
v -0.120652 0.154403 0.121015
v -0.048080 0.229655 0.142285
v -0.078070 0.079325 0.058036
v 0.009001 0.056765 0.031820
v 0.085706 0.110534 0.030121
v 0.096724 0.198273 0.061074
v 0.036199 0.252042 0.108225
v -0.089699 0.145710 0.145893
v 0.022784 0.028589 0.056727
v 0.126261 0.198501 0.088124
v -0.080316 0.054868 0.090430
v 0.113962 0.093093 0.053571
v 0.053598 0.263005 0.143290
v -0.047381 0.236551 0.182951
v -0.097970 0.137017 0.184732
v -0.055615 0.062112 0.121117
v 0.031455 0.039552 0.094900
v 0.058653 0.234829 0.171305
v 0.108387 0.093147 0.093838
v 0.119405 0.180886 0.124791
v -0.025172 0.212095 0.206639
v -0.067018 0.128323 0.209610
v 0.148943 0.181114 0.151841
v -0.075516 0.119804 0.247812
v -0.057635 0.037482 0.154147
v 0.045692 0.011028 0.121082
v 0.136643 0.075706 0.117288
v 0.076279 0.245618 0.207008
v -0.024700 0.219165 0.246668
v 0.054137 0.022165 0.158617
v 0.130841 0.075934 0.156918
v 0.141860 0.163673 0.187871
v -0.032707 0.044552 0.185471
v 0.134779 0.071070 0.192457
v 0.012954 0.102417 0.288111
v -0.027986 0.028178 0.217590
v 0.065726 0.013141 0.191062
v 0.135917 0.146492 0.224332
v 0.119541 0.126931 0.256859
v 0.084890 0.157500 0.277535
v 0.037455 0.146590 0.291443
v 0.029838 0.058244 0.270047
v 0.075393 0.047335 0.250854
v 0.115314 0.077903 0.244985
vn -0.3248 0.2490 -0.9124
vn -0.8993 0.1159 -0.4218
vn -0.8892 -0.0019 -0.4575
vn -0.8591 -0.1143 -0.4989
vn -0.9421 -0.0000 0.3354
vn 0.3248 -0.2490 0.9124
vn 0.9680 -0.0669 0.2419
vn 0.9562 0.0714 0.2839
vn 0.9207 0.2041 0.3327
vn -0.8890 0.2355 -0.3928
vn -0.8586 0.3533 -0.3715
vn -0.8091 0.4657 -0.3584
vn 0.9558 -0.2079 0.2078
vn 0.9202 -0.3462 0.1828
vn 0.8618 -0.4788 0.1673
vn -0.5636 0.7378 -0.3715
vn -0.6593 0.6609 -0.3585
vn -0.7420 0.5693 -0.3540
vn -0.3987 0.8388 0.3708
vn 0.5728 -0.7990 0.1828
vn 0.6856 -0.7085 0.1674
vn 0.7828 -0.6007 0.1621
vn -0.4577 0.7976 -0.3929
vn -0.3448 0.8385 -0.4219
vn -0.2285 0.8592 -0.4577
vn 0.4482 -0.8694 0.2080
vn 0.3153 -0.9176 0.2421
vn 0.1783 -0.9420 0.2842
vn 0.1065 0.7976 -0.5938
vn 0.0007 0.8385 -0.5449
vn -0.1121 0.8592 -0.4991
vn 0.5434 0.8388 0.0355
vn -0.2159 -0.8694 0.4444
vn -0.0914 -0.9176 0.3869
vn 0.0414 -0.9420 0.3330
vn 0.2021 0.7378 -0.6441
vn 0.2845 0.6609 -0.6944
vn 0.3514 0.5693 -0.7433
vn -0.3285 -0.7990 0.5036
vn -0.4256 -0.7086 0.5629
vn -0.5043 -0.6006 0.6204
vn 0.4408 0.2355 -0.8661
vn 0.4308 0.3533 -0.8304
vn 0.4007 0.4657 -0.7890
vn 0.9421 -0.0000 -0.3354
vn -0.6096 -0.2079 0.7650
vn -0.5977 -0.3462 0.7231
vn -0.5623 -0.4788 0.6742
vn 0.4305 0.1159 -0.8951
vn 0.4002 -0.0019 -0.9164
vn 0.3507 -0.1143 -0.9295
vn -0.5974 -0.0669 0.7991
vn -0.5617 0.0714 0.8242
vn -0.5034 0.2041 0.8396
vn 0.1051 -0.3864 -0.9163
vn 0.2009 -0.3095 -0.9295
vn 0.2836 -0.2178 -0.9339
vn 0.3987 -0.8388 -0.3708
vn -0.2144 0.5243 0.8241
vn -0.3271 0.4338 0.8395
vn -0.4245 0.3259 0.8448
vn -0.0008 -0.4461 -0.8950
vn -0.1136 -0.4870 -0.8660
vn -0.2300 -0.5078 -0.8302
vn -0.0897 0.5946 0.7990
vn 0.0431 0.6428 0.7648
vn 0.1801 0.6673 0.7227
vn -0.5649 -0.4461 -0.6941
vn -0.4591 -0.4870 -0.7430
vn -0.3463 -0.5078 -0.7888
vn -0.5434 -0.8388 -0.0355
vn 0.5744 0.5946 0.5626
vn 0.4498 0.6428 0.6200
vn 0.3171 0.6673 0.6740
vn -0.6605 -0.3863 -0.6438
vn -0.7430 -0.3095 -0.5935
vn -0.8099 -0.2178 -0.5446
vn 0.6869 0.5243 0.5033
vn 0.7841 0.4337 0.4440
vn 0.8627 0.3260 0.3866
vn -0.8126 0.4202 0.4039
vn 0.6527 0.7572 -0.0257
vn -0.1282 0.9442 0.3033
vn -0.8850 -0.4202 0.2004
vn -0.2910 -0.9442 -0.1541
vn 0.5221 -0.7572 -0.3925
vn -0.8690 -0.4371 0.2319
vn -0.2510 -0.9666 -0.0515
vn 0.5693 -0.7931 -0.2166
vn 0.9928 -0.0762 -0.0928
vn 0.7345 0.6254 0.2634
vn 0.0314 0.7809 0.6239
vn -0.5669 0.2925 0.7701
vn -0.8916 -0.4238 0.1594
vn -0.3059 -0.9141 -0.2663
vn 0.4745 -0.6783 -0.5610
vn 0.8277 0.1000 -0.5522
vn 0.4796 0.8217 -0.3079
vn -0.2927 0.9537 -0.0694
vn -0.8970 0.4382 -0.0584
vn -0.6407 -0.4472 0.6241
vn -0.1412 -0.9380 0.3165
vn 0.5751 -0.8124 0.0957
vn 0.9782 -0.1621 0.1297
vn 0.7595 0.5208 0.3898
vn 0.0804 0.7285 0.6803
vn -0.5430 0.2924 0.7872
vn -0.9155 -0.2895 -0.2793
vn -0.3699 -0.7201 -0.5870
vn 0.3448 -0.5188 -0.7823
vn 0.6823 0.1596 -0.7135
vn 0.3908 0.8132 -0.4313
vn -0.3094 0.9380 -0.1561
vn -0.8909 0.4472 -0.0789
vn -0.6440 -0.4460 0.6216
vn -0.1470 -0.9407 0.3058
vn 0.5754 -0.8132 0.0873
vn 0.9787 -0.1624 0.1254
vn 0.0809 0.7226 0.6865
vn -0.5376 0.2951 0.7899
vn -0.9170 -0.2952 -0.2682
vn 0.3416 -0.5171 -0.7848
vn 0.6762 0.1621 -0.7186
vn 0.3853 0.8124 -0.4375
vn -0.3069 0.9401 -0.1484
vn -0.8919 0.4460 -0.0749
vn -0.6373 -0.4484 0.6267
vn 0.5740 -0.8137 0.0916
vn 0.9796 -0.1596 0.1219
vn 0.0872 0.7207 0.6877
vn -0.5392 0.2924 0.7898
vn -0.9182 -0.2924 -0.2671
vn -0.3675 -0.7285 -0.5781
vn 0.3455 -0.5224 -0.7796
vn 0.3892 0.8119 -0.4351
vn -0.3098 0.9393 -0.1475
vn -0.8900 0.4484 -0.0830
vn 0.5763 -0.8111 0.0997
vn -0.9116 -0.3696 -0.1798
vn -0.2758 -0.9162 -0.2907
vn 0.5821 -0.7603 -0.2883
vn 0.9971 -0.0760 0.0045
vn 0.7023 0.3959 0.5916
vn 0.9173 -0.1667 0.3616
vn 0.6742 0.5005 0.5431
vn 0.7651 0.5254 0.3723
vn 0.6053 -0.7292 0.3192
vn 0.7593 0.5146 0.3984
vn 0.1264 0.6144 0.7788
vn -0.3929 0.1925 0.8992
vn -0.4401 -0.4789 0.7596
vn 0.0012 -0.8682 0.4963
s 0
usemtl Material.003
f 1//1 2//1 3//1 4//1
f 5//1 6//1 2//1 1//1
f 7//1 8//1 6//1 5//1
f 2//2 9//2 10//2 3//2
f 6//3 11//3 9//3 2//3
f 8//4 12//4 11//4 6//4
f 9//5 13//5 14//5 10//5
f 11//5 15//5 13//5 9//5
f 12//5 15//5 11//5
f 13//5 16//5 20//5 14//5
f 15//5 17//5 16//5 13//5
f 12//5 18//5 17//5 15//5
f 16//6 19//6 20//6
f 17//6 21//6 19//6 16//6
f 18//6 22//6 21//6 17//6
f 19//6 23//6 24//6 20//6
f 21//6 25//6 23//6 19//6
f 22//6 26//6 25//6 21//6
f 23//7 27//7 24//7
f 25//8 27//8 23//8
f 26//9 27//9 25//9
f 4//1 3//1 28//1 29//1
f 29//1 28//1 30//1 31//1
f 31//1 30//1 32//1 33//1
f 3//10 10//10 34//10 28//10
f 28//11 34//11 35//11 30//11
f 30//12 35//12 36//12 32//12
f 10//5 14//5 37//5 34//5
f 34//5 37//5 38//5 35//5
f 35//5 38//5 36//5
f 14//5 20//5 39//5 37//5
f 37//5 39//5 40//5 38//5
f 38//5 40//5 41//5 36//5
f 20//6 42//6 39//6
f 39//6 42//6 43//6 40//6
f 40//6 43//6 44//6 41//6
f 20//6 24//6 45//6 42//6
f 42//6 45//6 46//6 43//6
f 43//6 46//6 47//6 44//6
f 24//13 27//13 45//13
f 45//14 27//14 46//14
f 46//15 27//15 47//15
f 48//1 49//1 50//1 51//1
f 33//1 52//1 49//1 48//1
f 33//1 32//1 52//1
f 49//16 53//16 54//16 50//16
f 52//17 55//17 53//17 49//17
f 32//18 36//18 55//18 52//18
f 53//19 56//19 57//19 54//19
f 55//19 58//19 56//19 53//19
f 36//19 58//19 55//19
f 56//19 59//19 62//19 57//19
f 58//19 60//19 59//19 56//19
f 36//19 41//19 60//19 58//19
f 59//6 61//6 62//6
f 60//6 63//6 61//6 59//6
f 41//6 44//6 63//6 60//6
f 61//6 64//6 65//6 62//6
f 63//6 66//6 64//6 61//6
f 44//6 47//6 66//6 63//6
f 64//20 27//20 65//20
f 66//21 27//21 64//21
f 47//22 27//22 66//22
f 51//1 50//1 67//1 68//1
f 68//1 67//1 69//1 70//1
f 70//1 69//1 71//1 72//1
f 50//23 54//23 73//23 67//23
f 67//24 73//24 74//24 69//24
f 69//25 74//25 75//25 71//25
f 54//19 57//19 76//19 73//19
f 73//19 76//19 77//19 74//19
f 74//19 77//19 75//19
f 57//19 62//19 78//19 76//19
f 76//19 78//19 79//19 77//19
f 77//19 79//19 80//19 75//19
f 62//6 82//6 78//6
f 78//6 82//6 83//6 79//6
f 79//6 83//6 81//6 80//6
f 62//6 65//6 84//6 82//6
f 82//6 84//6 85//6 83//6
f 83//6 85//6 86//6 81//6
f 65//26 27//26 84//26
f 84//27 27//27 85//27
f 85//28 27//28 86//28
f 87//1 88//1 89//1 90//1
f 91//1 92//1 88//1 87//1
f 72//1 71//1 92//1 91//1
f 88//29 93//29 94//29 89//29
f 92//30 95//30 93//30 88//30
f 71//31 75//31 95//31 92//31
f 93//32 96//32 97//32 94//32
f 95//32 98//32 96//32 93//32
f 75//32 98//32 95//32
f 96//32 99//32 102//32 97//32
f 98//32 100//32 99//32 96//32
f 75//32 80//32 100//32 98//32
f 99//6 101//6 102//6
f 100//6 103//6 101//6 99//6
f 80//6 81//6 103//6 100//6
f 101//6 104//6 105//6 102//6
f 103//6 106//6 104//6 101//6
f 81//6 86//6 106//6 103//6
f 104//33 27//33 105//33
f 106//34 27//34 104//34
f 86//35 27//35 106//35
f 90//1 89//1 107//1 108//1
f 108//1 107//1 109//1 110//1
f 110//1 109//1 111//1
f 89//36 94//36 112//36 107//36
f 107//37 112//37 113//37 109//37
f 109//38 113//38 114//38 111//38
f 94//32 97//32 115//32 112//32
f 112//32 115//32 116//32 113//32
f 113//32 116//32 114//32
f 97//32 102//32 117//32 115//32
f 115//32 117//32 118//32 116//32
f 116//32 118//32 119//32 114//32
f 102//6 120//6 117//6
f 117//6 120//6 121//6 118//6
f 118//6 121//6 122//6 119//6
f 102//6 105//6 123//6 120//6
f 120//6 123//6 124//6 121//6
f 121//6 124//6 125//6 122//6
f 105//39 27//39 123//39
f 123//40 27//40 124//40
f 124//41 27//41 125//41
f 126//1 127//1 128//1 129//1
f 130//1 131//1 127//1 126//1
f 110//1 111//1 131//1 130//1
f 127//42 132//42 133//42 128//42
f 131//43 134//43 132//43 127//43
f 111//44 114//44 134//44 131//44
f 132//45 135//45 136//45 133//45
f 134//45 137//45 135//45 132//45
f 114//45 137//45 134//45
f 135//45 138//45 141//45 136//45
f 137//45 139//45 138//45 135//45
f 114//45 119//45 139//45 137//45
f 138//6 140//6 141//6
f 139//6 142//6 140//6 138//6
f 119//6 122//6 142//6 139//6
f 140//6 143//6 144//6 141//6
f 142//6 145//6 143//6 140//6
f 122//6 125//6 145//6 142//6
f 143//46 27//46 144//46
f 145//47 27//47 143//47
f 125//48 27//48 145//48
f 129//1 128//1 146//1 147//1
f 147//1 146//1 148//1 149//1
f 149//1 148//1 150//1 151//1
f 128//49 133//49 152//49 146//49
f 146//50 152//50 153//50 148//50
f 148//51 153//51 154//51 150//51
f 133//45 136//45 155//45 152//45
f 152//45 155//45 156//45 153//45
f 153//45 156//45 154//45
f 136//45 141//45 157//45 155//45
f 155//45 157//45 158//45 156//45
f 156//45 158//45 159//45 154//45
f 141//6 160//6 157//6
f 157//6 160//6 161//6 158//6
f 158//6 161//6 162//6 159//6
f 141//6 144//6 163//6 160//6
f 160//6 163//6 164//6 161//6
f 161//6 164//6 165//6 162//6
f 144//52 27//52 163//52
f 163//53 27//53 164//53
f 164//54 27//54 165//54
f 166//1 167//1 168//1 169//1
f 170//1 171//1 167//1 166//1
f 170//1 150//1 171//1
f 167//55 172//55 173//55 168//55
f 171//56 174//56 172//56 167//56
f 150//57 154//57 174//57 171//57
f 172//58 175//58 176//58 173//58
f 174//58 177//58 175//58 172//58
f 154//58 177//58 174//58
f 175//58 178//58 181//58 176//58
f 177//58 179//58 178//58 175//58
f 154//58 159//58 179//58 177//58
f 178//6 180//6 181//6
f 179//6 182//6 180//6 178//6
f 159//6 162//6 182//6 179//6
f 180//6 183//6 184//6 181//6
f 182//6 185//6 183//6 180//6
f 162//6 165//6 185//6 182//6
f 183//59 27//59 184//59
f 185//60 27//60 183//60
f 165//61 27//61 185//61
f 169//1 168//1 186//1 187//1
f 187//1 186//1 188//1 189//1
f 189//1 188//1 190//1 191//1
f 168//62 173//62 192//62 186//62
f 186//63 192//63 193//63 188//63
f 188//64 193//64 194//64 190//64
f 173//58 176//58 195//58 192//58
f 192//58 195//58 196//58 193//58
f 193//58 196//58 194//58
f 176//58 181//58 197//58 195//58
f 195//58 197//58 198//58 196//58
f 196//58 198//58 199//58 194//58
f 181//6 201//6 197//6
f 197//6 201//6 202//6 198//6
f 198//6 202//6 200//6 199//6
f 181//6 184//6 203//6 201//6
f 201//6 203//6 204//6 202//6
f 202//6 204//6 205//6 200//6
f 184//65 27//65 203//65
f 203//66 27//66 204//66
f 204//67 27//67 205//67
f 206//1 207//1 208//1 209//1
f 210//1 211//1 207//1 206//1
f 191//1 190//1 211//1 210//1
f 207//68 212//68 213//68 208//68
f 211//69 214//69 212//69 207//69
f 190//70 194//70 214//70 211//70
f 212//71 215//71 216//71 213//71
f 214//71 217//71 215//71 212//71
f 194//71 217//71 214//71
f 215//71 218//71 221//71 216//71
f 217//71 219//71 218//71 215//71
f 194//71 199//71 219//71 217//71
f 218//6 220//6 221//6
f 219//6 222//6 220//6 218//6
f 199//6 200//6 222//6 219//6
f 220//6 223//6 224//6 221//6
f 222//6 225//6 223//6 220//6
f 200//6 205//6 225//6 222//6
f 223//72 27//72 224//72
f 225//73 27//73 223//73
f 205//74 27//74 225//74
f 209//1 208//1 226//1 227//1
f 227//1 226//1 228//1 7//1
f 7//1 228//1 8//1
f 208//75 213//75 229//75 226//75
f 226//76 229//76 230//76 228//76
f 228//77 230//77 12//77 8//77
f 213//71 216//71 231//71 229//71
f 229//71 231//71 232//71 230//71
f 230//71 232//71 12//71
f 216//71 221//71 233//71 231//71
f 231//71 233//71 234//71 232//71
f 232//71 234//71 18//71 12//71
f 221//6 235//6 233//6
f 233//6 235//6 236//6 234//6
f 234//6 236//6 22//6 18//6
f 221//6 224//6 237//6 235//6
f 235//6 237//6 238//6 236//6
f 236//6 238//6 26//6 22//6
f 224//78 27//78 237//78
f 237//79 27//79 238//79
f 238//80 27//80 26//80
f 27//1 239//1 240//1
f 27//1 241//1 239//1
f 27//1 242//1 241//1
f 27//1 243//1 242//1
f 27//1 244//1 243//1
f 27//1 245//1 244//1
f 27//1 240//1 245//1
f 240//81 246//81 245//81
f 243//45 247//45 242//45
f 244//82 249//82 247//82 243//82
f 245//83 248//83 249//83 244//83
f 246//81 250//81 248//81 245//81
f 239//84 251//84 240//84
f 241//85 252//85 251//85 239//85
f 242//86 253//86 252//86 241//86
f 247//45 255//45 253//45 242//45
f 249//82 254//82 255//82 247//82
f 248//83 256//83 254//83 249//83
f 250//81 257//81 256//81 248//81
f 251//84 246//84 240//84
f 251//87 258//87 250//87 246//87
f 252//88 259//88 258//88 251//88
f 253//89 260//89 259//89 252//89
f 255//90 261//90 260//90 253//90
f 254//91 262//91 261//91 255//91
f 256//92 263//92 262//92 254//92
f 257//93 264//93 263//93 256//93
f 258//94 268//94 257//94 250//94
f 259//95 269//95 268//95 258//95
f 260//96 270//96 269//96 259//96
f 261//97 271//97 270//97 260//97
f 262//98 265//98 271//98 261//98
f 263//99 266//99 265//99 262//99
f 264//100 267//100 266//100 263//100
f 268//101 275//101 264//101 257//101
f 269//102 272//102 275//102 268//102
f 270//103 276//103 272//103 269//103
f 271//104 273//104 276//104 270//104
f 265//105 277//105 273//105 271//105
f 266//106 278//106 277//106 265//106
f 267//107 274//107 278//107 266//107
f 275//108 279//108 267//108 264//108
f 272//109 280//109 279//109 275//109
f 276//110 282//110 280//110 272//110
f 273//111 283//111 282//111 276//111
f 277//112 284//112 283//112 273//112
f 278//113 281//113 284//113 277//113
f 274//114 285//114 281//114 278//114
f 279//115 287//115 274//115 267//115
f 280//116 288//116 287//116 279//116
f 282//117 289//117 288//117 280//117
f 283//118 290//118 289//118 282//118
f 284//105 291//105 290//105 283//105
f 281//119 286//119 291//119 284//119
f 285//120 292//120 286//120 281//120
f 287//121 295//121 285//121 274//121
f 288//109 293//109 295//109 287//109
f 289//122 296//122 293//122 288//122
f 290//123 294//123 296//123 289//123
f 291//124 297//124 294//124 290//124
f 286//125 298//125 297//125 291//125
f 292//126 299//126 298//126 286//126
f 295//127 300//127 292//127 285//127
f 293//102 301//102 300//102 295//102
f 296//128 303//128 301//128 293//128
f 294//129 304//129 303//129 296//129
f 297//105 302//105 304//105 294//105
f 298//130 305//130 302//130 297//130
f 299//131 306//131 305//131 298//131
f 300//132 309//132 299//132 292//132
f 301//133 310//133 309//133 300//133
f 303//134 311//134 310//134 301//134
f 304//123 307//123 311//123 303//123
f 302//135 312//135 307//135 304//135
f 305//136 313//136 312//136 302//136
f 306//137 308//137 313//137 305//137
f 309//101 317//101 306//101 299//101
f 310//102 314//102 317//102 309//102
f 311//138 315//138 314//138 310//138
f 307//104 316//104 315//104 311//104
f 317//139 320//139 308//139 306//139
f 314//140 321//140 320//140 317//140
f 315//141 318//141 321//141 314//141
f 316//142 322//142 318//142 315//142
f 324//143 323//143 322//143
f 323//144 328//144 318//144 322//144
f 324//145 322//145 312//145
f 316//146 312//146 322//146
f 328//147 327//147 321//147 318//147
f 312//148 316//148 307//148
f 313//149 325//149 324//149 312//149
f 319//150 325//150 313//150 308//150
f 326//151 319//151 308//151 320//151
f 321//152 327//152 326//152 320//152
f 327//6 328//6 326//6
f 328//6 319//6 326//6
f 328//6 323//6 319//6
f 323//6 325//6 319//6
f 323//6 324//6 325//6
