# Blender 4.1.1
# www.blender.org
mtllib book.mtl
o Cylinder.001
v 0.451718 0.054133 0.306742
v 0.451718 0.085160 0.381646
v 0.451718 0.154631 0.410423
v 0.451718 0.224102 0.381646
v 0.451718 0.255128 0.306742
v 0.451718 0.054133 -0.312175
v 0.451718 0.255128 -0.312175
v 0.451718 0.064254 0.402552
v 0.451718 0.026819 0.312175
v 0.451718 0.154631 0.439988
v 0.451718 0.245008 0.402552
v 0.451718 0.282443 0.312175
v 0.451718 0.282443 -0.312175
v 0.451718 0.026819 -0.312175
v 0.394328 0.255128 -0.266612
v 0.394328 0.054133 -0.266612
v 0.394328 0.085160 0.381780
v 0.394328 0.054133 0.306876
v 0.394328 0.154631 0.410556
v 0.394328 0.224102 0.381780
v 0.394328 0.255128 0.306876
v -0.451718 0.054133 0.306742
v -0.451718 0.085160 0.381646
v -0.451718 0.154631 0.410423
v -0.451718 0.224102 0.381646
v -0.451718 0.255128 0.306742
v -0.451718 0.054133 -0.312175
v -0.451718 0.255128 -0.312175
v -0.451718 0.064254 0.402552
v -0.451718 0.026819 0.312175
v -0.451718 0.154631 0.439988
v -0.451718 0.245008 0.402552
v -0.451718 0.282443 0.312175
v -0.451718 0.282443 -0.312175
v -0.451718 0.026819 -0.312175
v -0.394328 0.255128 -0.266612
v -0.394328 0.054133 -0.266612
v -0.394328 0.085160 0.381780
v -0.394328 0.054133 0.306876
v -0.394328 0.154631 0.410556
v -0.394328 0.224102 0.381780
v -0.394328 0.255128 0.306876
vn -0.0000 -0.0000 -1.0000
vn -0.0000 -0.9239 0.3827
vn -0.0000 -0.3827 0.9239
vn -0.0000 0.3827 0.9239
vn -0.0000 0.9239 0.3827
vn -0.0000 1.0000 -0.0000
vn -0.0022 -0.3827 -0.9239
vn 1.0000 -0.0000 -0.0000
vn -0.0000 -1.0000 -0.0000
vn -0.0009 -0.9239 -0.3827
vn -0.0009 0.9239 -0.3827
vn -0.0022 0.3827 -0.9239
vn 0.0022 -0.3827 -0.9239
vn -1.0000 -0.0000 -0.0000
vn 0.0009 -0.9239 -0.3827
vn 0.0009 0.9239 -0.3827
vn 0.0022 0.3827 -0.9239
vt 0.750000 1.000000
vt 0.696573 1.000000
vt 0.625000 1.000000
vt 0.500000 1.000000
vt 0.375000 1.000000
vt 0.250000 1.000000
vt 0.396373 1.000000
vt 0.691281 1.000000
vt 0.603627 1.000000
vt 0.308719 1.000000
vt 0.303427 1.000000
s 0
usemtl Material.005
f 14/1/1 35/1/1 27/2/1 6/2/1
f 8/3/2 29/3/2 30/1/2 9/1/2
f 10/4/3 31/4/3 29/3/3 8/3/3
f 11/5/4 32/5/4 31/4/4 10/4/4
f 12/6/5 33/6/5 32/5/5 11/5/5
f 13/6/6 34/6/6 33/6/6 12/6/6
f 4/7/7 3/4/7 19/4/7 20/7/7
f 1/8/6 6/2/6 16/2/6 18/8/6
f 1/8/8 2/9/8 8/3/8 9/1/8
f 2/9/8 3/4/8 10/4/8 8/3/8
f 3/4/8 4/7/8 11/5/8 10/4/8
f 4/7/8 5/10/8 12/6/8 11/5/8
f 5/10/8 7/11/8 13/6/8 12/6/8
f 6/2/8 1/8/8 9/1/8 14/1/8
f 28/11/1 34/6/1 13/6/1 7/11/1
f 15/11/9 36/11/9 28/11/9 7/11/9
f 5/10/10 4/7/10 20/7/10 21/10/10
f 2/9/11 1/8/11 18/8/11 17/9/11
f 27/2/6 37/2/6 16/2/6 6/2/6
f 7/11/9 5/10/9 21/10/9 15/11/9
f 3/4/12 2/9/12 17/9/12 19/4/12
f 25/7/13 41/7/13 40/4/13 24/4/13
f 22/8/6 39/8/6 37/2/6 27/2/6
f 22/8/14 30/1/14 29/3/14 23/9/14
f 23/9/14 29/3/14 31/4/14 24/4/14
f 24/4/14 31/4/14 32/5/14 25/7/14
f 25/7/14 32/5/14 33/6/14 26/10/14
f 26/10/14 33/6/14 34/6/14 28/11/14
f 27/2/14 35/1/14 30/1/14 22/8/14
f 26/10/15 42/10/15 41/7/15 25/7/15
f 23/9/16 38/9/16 39/8/16 22/8/16
f 28/11/9 36/11/9 42/10/9 26/10/9
f 24/4/17 40/4/17 38/9/17 23/9/17
f 30/1/9 35/1/9 14/1/9 9/1/9
usemtl Material.006
f 16/2/1 37/2/1 36/11/1 15/11/1
f 17/9/8 18/8/8 16/2/8 15/11/8 21/10/8 20/7/8 19/4/8
f 38/9/14 40/4/14 41/7/14 42/10/14 36/11/14 37/2/14 39/8/14
