# Blender 4.1.1
# www.blender.org
mtllib bottle.mtl
o Plane
v 0.000000 0.000000 0.000000
v 0.000000 0.754476 -0.194919
v 0.000000 1.009041 -0.052961
v 0.000000 1.055003 -0.048686
v 0.000000 0.000209 -0.000000
v 0.000000 0.033430 -0.197195
v 0.000000 0.013340 -0.189031
v 0.000000 1.058252 -0.000000
v -0.074592 0.754476 -0.180082
v -0.020267 1.009041 -0.048931
v -0.018631 1.055003 -0.044981
v -0.075463 0.033430 -0.182185
v -0.072339 0.013340 -0.174642
v -0.137829 0.754476 -0.137829
v -0.037449 1.009041 -0.037449
v -0.034427 1.055003 -0.034427
v -0.139437 0.033430 -0.139437
v -0.133664 0.013340 -0.133664
v -0.180082 0.754476 -0.074592
v -0.048930 1.009041 -0.020267
v -0.044981 1.055003 -0.018631
v -0.182185 0.033430 -0.075463
v -0.174642 0.013340 -0.072339
v -0.194919 0.754476 -0.000000
v -0.052961 1.009041 -0.000000
v -0.048686 1.055003 -0.000000
v -0.197195 0.033430 -0.000000
v -0.189031 0.013340 -0.000000
v -0.180082 0.754476 0.074592
v -0.048930 1.009041 0.020267
v -0.044981 1.055003 0.018631
v -0.182185 0.033430 0.075463
v -0.174642 0.013340 0.072339
v -0.137829 0.754476 0.137829
v -0.037449 1.009041 0.037449
v -0.034427 1.055003 0.034427
v -0.139437 0.033430 0.139437
v -0.133664 0.013340 0.133664
v -0.074592 0.754476 0.180082
v -0.020267 1.009041 0.048930
v -0.018631 1.055003 0.044980
v -0.075463 0.033430 0.182185
v -0.072339 0.013340 0.174642
v 0.000000 0.754476 0.194919
v 0.000000 1.009041 0.052961
v 0.000000 1.055003 0.048686
v 0.000000 0.033430 0.197195
v 0.000000 0.013340 0.189031
v 0.074592 0.754476 0.180082
v 0.020267 1.009041 0.048930
v 0.018631 1.055003 0.044980
v 0.075463 0.033430 0.182185
v 0.072339 0.013340 0.174642
v 0.137829 0.754476 0.137829
v 0.037449 1.009041 0.037449
v 0.034427 1.055003 0.034427
v 0.139437 0.033430 0.139437
v 0.133664 0.013340 0.133664
v 0.180082 0.754476 0.074592
v 0.048930 1.009041 0.020267
v 0.044981 1.055003 0.018631
v 0.182185 0.033430 0.075463
v 0.174642 0.013340 0.072339
v 0.194919 0.754476 -0.000000
v 0.052961 1.009041 -0.000000
v 0.048686 1.055003 -0.000000
v 0.197195 0.033430 -0.000000
v 0.189031 0.013340 -0.000000
v 0.180082 0.754476 -0.074592
v 0.048930 1.009041 -0.020267
v 0.044981 1.055003 -0.018631
v 0.182185 0.033430 -0.075463
v 0.174642 0.013340 -0.072339
v 0.137829 0.754476 -0.137829
v 0.037449 1.009041 -0.037449
v 0.034427 1.055003 -0.034427
v 0.139437 0.033430 -0.139437
v 0.133664 0.013340 -0.133664
v 0.074592 0.754476 -0.180082
v 0.020267 1.009041 -0.048931
v 0.018631 1.055003 -0.044981
v 0.075463 0.033430 -0.182185
v 0.072339 0.013340 -0.174642
vn -0.0000 0.2458 -0.9693
vn -0.3709 0.2459 -0.8955
vn -0.3646 0.3037 -0.8802
vn -0.0000 0.3037 -0.9528
vn -0.6854 0.2458 -0.6854
vn -0.6737 0.3037 -0.6737
vn -0.8955 0.2459 -0.3709
vn -0.8802 0.3037 -0.3646
vn -0.9693 0.2459 -0.0000
vn -0.9528 0.3037 -0.0000
vn -0.8955 0.2459 0.3709
vn -0.8802 0.3037 0.3646
vn -0.6854 0.2459 0.6854
vn -0.6737 0.3037 0.6737
vn -0.3709 0.2459 0.8955
vn -0.3646 0.3037 0.8802
vn -0.0000 0.2459 0.9693
vn -0.0000 0.3037 0.9528
vn 0.3709 0.2459 0.8955
vn 0.3646 0.3037 0.8802
vn 0.6854 0.2459 0.6854
vn 0.6737 0.3037 0.6737
vn 0.8955 0.2459 0.3709
vn 0.8802 0.3037 0.3646
vn 0.9693 0.2459 -0.0000
vn 0.9528 0.3037 -0.0000
vn 0.8955 0.2459 -0.3709
vn 0.8802 0.3037 -0.3646
vn 0.6854 0.2458 -0.6854
vn 0.6737 0.3037 -0.6737
vn 0.3709 0.2459 -0.8955
vn 0.3646 0.3037 -0.8802
vn -0.2813 0.6781 -0.6791
vn -0.0000 0.6781 -0.7350
vn -0.5197 0.6780 -0.5197
vn -0.6791 0.6780 -0.2813
vn -0.7350 0.6781 -0.0000
vn -0.6791 0.6780 0.2813
vn -0.5197 0.6780 0.5197
vn -0.2813 0.6781 0.6791
vn -0.0000 0.6781 0.7350
vn 0.2813 0.6781 0.6791
vn 0.5197 0.6780 0.5197
vn 0.6791 0.6780 0.2813
vn 0.7350 0.6781 -0.0000
vn 0.6791 0.6780 -0.2813
vn 0.5197 0.6780 -0.5197
vn 0.2813 0.6781 -0.6791
vn -0.0000 -1.0000 -0.0000
vn -0.2399 -0.7791 -0.5792
vn -0.0000 -0.7791 -0.6269
vn -0.4433 -0.7791 -0.4433
vn -0.5792 -0.7791 -0.2399
vn -0.6269 -0.7791 -0.0000
vn -0.5792 -0.7791 0.2399
vn -0.4433 -0.7791 0.4433
vn -0.2399 -0.7791 0.5792
vn -0.0000 -0.7791 0.6269
vn 0.2399 -0.7791 0.5792
vn 0.4433 -0.7791 0.4433
vn 0.5792 -0.7791 0.2399
vn 0.6269 -0.7791 -0.0000
vn 0.5792 -0.7791 -0.2399
vn 0.4433 -0.7791 -0.4433
vn 0.2399 -0.7791 -0.5792
vn -0.3760 -0.1859 -0.9078
vn -0.0000 -0.1859 -0.9826
vn -0.6948 -0.1859 -0.6948
vn -0.9078 -0.1859 -0.3760
vn -0.9826 -0.1859 -0.0000
vn -0.9078 -0.1859 0.3760
vn -0.6948 -0.1859 0.6948
vn -0.3760 -0.1859 0.9078
vn -0.0000 -0.1859 0.9826
vn 0.3760 -0.1859 0.9078
vn 0.6948 -0.1859 0.6948
vn 0.9078 -0.1859 0.3760
vn 0.9826 -0.1859 -0.0000
vn 0.9078 -0.1859 -0.3760
vn 0.6948 -0.1859 -0.6948
vn 0.3760 -0.1859 -0.9078
vn -0.0000 1.0000 -0.0000
vt 0.000000 2.005594
vt 0.062500 2.005594
vt 0.062500 2.682294
vt 0.000000 2.682294
vt 0.125000 2.005594
vt 0.125000 2.682294
vt 0.187500 2.005594
vt 0.187500 2.682294
vt 0.250000 2.005594
vt 0.250000 2.682294
vt 0.312500 2.005594
vt 0.312500 2.682294
vt 0.375000 2.005594
vt 0.375000 2.682294
vt 0.437500 2.005594
vt 0.437500 2.682294
vt 0.500000 2.005594
vt 0.500000 2.682294
vt 0.562500 2.005594
vt 0.562500 2.682294
vt 0.625000 2.005594
vt 0.625000 2.682294
vt 0.687500 2.005594
vt 0.687500 2.682294
vt 0.750000 2.005594
vt 0.750000 2.682294
vt 0.812500 2.005594
vt 0.812500 2.682294
vt 0.875000 2.005594
vt 0.875000 2.682294
vt 0.937500 2.005594
vt 0.937500 2.682294
vt 1.000000 2.005594
vt 1.000000 2.682294
vt 0.062500 2.804477
vt 0.000000 2.804477
vt 0.125000 2.804477
vt 0.187500 2.804477
vt 0.250000 2.804477
vt 0.312500 2.804477
vt 0.375000 2.804477
vt 0.437500 2.804477
vt 0.500000 2.804477
vt 0.562500 2.804477
vt 0.625000 2.804477
vt 0.687500 2.804477
vt 0.750000 2.804477
vt 0.812500 2.804477
vt 0.875000 2.804477
vt 0.937500 2.804477
vt 1.000000 2.804477
vt 0.031250 0.000554
vt 0.062500 0.035459
vt 0.000000 0.035459
vt 0.093750 0.000554
vt 0.125000 0.035459
vt 0.156250 0.000554
vt 0.187500 0.035459
vt 0.218750 0.000554
vt 0.250000 0.035459
vt 0.281250 0.000554
vt 0.312500 0.035459
vt 0.343750 0.000554
vt 0.375000 0.035459
vt 0.406250 0.000554
vt 0.437500 0.035459
vt 0.468750 0.000554
vt 0.500000 0.035459
vt 0.531250 0.000554
vt 0.562500 0.035459
vt 0.593750 0.000554
vt 0.625000 0.035459
vt 0.656250 0.000554
vt 0.687500 0.035459
vt 0.718750 0.000554
vt 0.750000 0.035459
vt 0.781250 0.000554
vt 0.812500 0.035459
vt 0.843750 0.000554
vt 0.875000 0.035459
vt 0.906250 0.000554
vt 0.937500 0.035459
vt 0.968750 0.000554
vt 1.000000 0.035459
vt 0.062500 0.088865
vt 0.000000 0.088865
vt 0.125000 0.088865
vt 0.187500 0.088865
vt 0.250000 0.088865
vt 0.312500 0.088865
vt 0.375000 0.088865
vt 0.437500 0.088865
vt 0.500000 0.088865
vt 0.562500 0.088865
vt 0.625000 0.088865
vt 0.687500 0.088865
vt 0.750000 0.088865
vt 0.812500 0.088865
vt 0.875000 0.088865
vt 0.937500 0.088865
vt 1.000000 0.088865
vt 0.031250 2.813113
vt 0.093750 2.813113
vt 0.156250 2.813113
vt 0.218750 2.813113
vt 0.281250 2.813113
vt 0.343750 2.813113
vt 0.406250 2.813113
vt 0.468750 2.813113
vt 0.531250 2.813113
vt 0.593750 2.813113
vt 0.656250 2.813113
vt 0.718750 2.813113
vt 0.781250 2.813113
vt 0.843750 2.813113
vt 0.906250 2.813113
vt 0.968750 2.813113
s 1
usemtl Material.002
f 2/1/1 9/2/2 10/3/3 3/4/4
f 9/2/2 14/5/5 15/6/6 10/3/3
f 14/5/5 19/7/7 20/8/8 15/6/6
f 19/7/7 24/9/9 25/10/10 20/8/8
f 24/9/9 29/11/11 30/12/12 25/10/10
f 29/11/11 34/13/13 35/14/14 30/12/12
f 34/13/13 39/15/15 40/16/16 35/14/14
f 39/15/15 44/17/17 45/18/18 40/16/16
f 44/17/17 49/19/19 50/20/20 45/18/18
f 49/19/19 54/21/21 55/22/22 50/20/20
f 54/21/21 59/23/23 60/24/24 55/22/22
f 59/23/23 64/25/25 65/26/26 60/24/24
f 64/25/25 69/27/27 70/28/28 65/26/26
f 69/27/27 74/29/29 75/30/30 70/28/28
f 74/29/29 79/31/31 80/32/32 75/30/30
f 79/31/31 2/33/1 3/34/4 80/32/32
f 3/4/4 10/3/3 11/35/33 4/36/34
f 10/3/3 15/6/6 16/37/35 11/35/33
f 15/6/6 20/8/8 21/38/36 16/37/35
f 20/8/8 25/10/10 26/39/37 21/38/36
f 25/10/10 30/12/12 31/40/38 26/39/37
f 30/12/12 35/14/14 36/41/39 31/40/38
f 35/14/14 40/16/16 41/42/40 36/41/39
f 40/16/16 45/18/18 46/43/41 41/42/40
f 45/18/18 50/20/20 51/44/42 46/43/41
f 50/20/20 55/22/22 56/45/43 51/44/42
f 55/22/22 60/24/24 61/46/44 56/45/43
f 60/24/24 65/26/26 66/47/45 61/46/44
f 65/26/26 70/28/28 71/48/46 66/47/45
f 70/28/28 75/30/30 76/49/47 71/48/46
f 75/30/30 80/32/32 81/50/48 76/49/47
f 80/32/32 3/34/4 4/51/34 81/50/48
f 5/52/49 13/53/50 7/54/51
f 5/55/49 18/56/52 13/53/50
f 5/57/49 23/58/53 18/56/52
f 5/59/49 28/60/54 23/58/53
f 5/61/49 33/62/55 28/60/54
f 5/63/49 38/64/56 33/62/55
f 5/65/49 43/66/57 38/64/56
f 5/67/49 48/68/58 43/66/57
f 5/69/49 53/70/59 48/68/58
f 5/71/49 58/72/60 53/70/59
f 5/73/49 63/74/61 58/72/60
f 5/75/49 68/76/62 63/74/61
f 5/77/49 73/78/63 68/76/62
f 5/79/49 78/80/64 73/78/63
f 5/81/49 83/82/65 78/80/64
f 5/83/49 7/84/51 83/82/65
f 7/54/51 13/53/50 12/85/66 6/86/67
f 13/53/50 18/56/52 17/87/68 12/85/66
f 18/56/52 23/58/53 22/88/69 17/87/68
f 23/58/53 28/60/54 27/89/70 22/88/69
f 28/60/54 33/62/55 32/90/71 27/89/70
f 33/62/55 38/64/56 37/91/72 32/90/71
f 38/64/56 43/66/57 42/92/73 37/91/72
f 43/66/57 48/68/58 47/93/74 42/92/73
f 48/68/58 53/70/59 52/94/75 47/93/74
f 53/70/59 58/72/60 57/95/76 52/94/75
f 58/72/60 63/74/61 62/96/77 57/95/76
f 63/74/61 68/76/62 67/97/78 62/96/77
f 68/76/62 73/78/63 72/98/79 67/97/78
f 73/78/63 78/80/64 77/99/80 72/98/79
f 78/80/64 83/82/65 82/100/81 77/99/80
f 83/82/65 7/84/51 6/101/67 82/100/81
f 6/86/67 12/85/66 9/2/2 2/1/1
f 12/85/66 17/87/68 14/5/5 9/2/2
f 17/87/68 22/88/69 19/7/7 14/5/5
f 22/88/69 27/89/70 24/9/9 19/7/7
f 27/89/70 32/90/71 29/11/11 24/9/9
f 32/90/71 37/91/72 34/13/13 29/11/11
f 37/91/72 42/92/73 39/15/15 34/13/13
f 42/92/73 47/93/74 44/17/17 39/15/15
f 47/93/74 52/94/75 49/19/19 44/17/17
f 52/94/75 57/95/76 54/21/21 49/19/19
f 57/95/76 62/96/77 59/23/23 54/21/21
f 62/96/77 67/97/78 64/25/25 59/23/23
f 67/97/78 72/98/79 69/27/27 64/25/25
f 72/98/79 77/99/80 74/29/29 69/27/27
f 77/99/80 82/100/81 79/31/31 74/29/29
f 82/100/81 6/101/67 2/33/1 79/31/31
f 4/36/34 11/35/33 8/102/82
f 11/35/33 16/37/35 8/103/82
f 16/37/35 21/38/36 8/104/82
f 21/38/36 26/39/37 8/105/82
f 26/39/37 31/40/38 8/106/82
f 31/40/38 36/41/39 8/107/82
f 36/41/39 41/42/40 8/108/82
f 41/42/40 46/43/41 8/109/82
f 46/43/41 51/44/42 8/110/82
f 51/44/42 56/45/43 8/111/82
f 56/45/43 61/46/44 8/112/82
f 61/46/44 66/47/45 8/113/82
f 66/47/45 71/48/46 8/114/82
f 71/48/46 76/49/47 8/115/82
f 76/49/47 81/50/48 8/116/82
f 81/50/48 4/51/34 8/117/82
l 5 1
