# Blender 4.1.1
# www.blender.org
mtllib lock.mtl
o lock
v -0.178382 0.067335 0.088821
v -0.328335 0.024833 0.109092
v -0.178382 0.024275 0.109558
v -0.328335 0.014198 0.155686
v -0.178382 0.013640 0.156152
v -0.328335 0.043996 0.193052
v -0.178382 0.043438 0.193517
v -0.328335 0.091789 0.193052
v -0.178382 0.091231 0.193517
v -0.328335 0.121587 0.155686
v -0.178382 0.121029 0.156152
v -0.328335 0.110952 0.109092
v -0.178382 0.110394 0.109558
v -0.354156 0.067892 0.052034
v -0.374893 0.024833 0.052034
v -0.421487 0.014198 0.052034
v -0.458852 0.043996 0.052034
v -0.458852 0.091789 0.052034
v -0.421487 0.121587 0.052034
v -0.374893 0.110952 0.052034
v -0.357970 0.024833 0.095038
v -0.390719 0.014198 0.128182
v -0.416981 0.043996 0.154762
v -0.416981 0.091789 0.154762
v -0.390719 0.121587 0.128182
v -0.357970 0.110952 0.095038
v -0.343396 0.067892 0.080287
v -0.178382 0.067335 -0.087892
v -0.328334 0.024833 -0.109093
v -0.178382 0.024275 -0.108628
v -0.328334 0.014198 -0.155687
v -0.178382 0.013640 -0.155222
v -0.328334 0.043996 -0.193053
v -0.178382 0.043438 -0.192587
v -0.328334 0.091789 -0.193053
v -0.178382 0.091231 -0.192587
v -0.328334 0.121587 -0.155687
v -0.178382 0.121029 -0.155222
v -0.328334 0.110952 -0.109093
v -0.178382 0.110394 -0.108628
v -0.354156 0.067892 -0.052034
v -0.374893 0.024833 -0.052034
v -0.421487 0.014198 -0.052034
v -0.458852 0.043996 -0.052034
v -0.458852 0.091789 -0.052034
v -0.421487 0.121587 -0.052034
v -0.374893 0.110952 -0.052034
v -0.357970 0.024833 -0.095038
v -0.390719 0.014198 -0.128183
v -0.416981 0.043996 -0.154763
v -0.416981 0.091789 -0.154763
v -0.390719 0.121587 -0.128183
v -0.357970 0.110952 -0.095038
v -0.343396 0.067892 -0.080288
v -0.178382 -0.001991 0.228864
v -0.178382 0.137776 0.228864
v -0.178382 -0.001991 -0.228864
v -0.178382 0.137776 -0.228864
v 0.178382 0.030119 0.043751
v 0.178382 0.105666 0.043751
v 0.178382 0.030119 -0.043750
v 0.178382 0.105666 -0.043750
v 0.178382 0.133793 -0.216997
v 0.178382 0.001991 -0.216997
v 0.178382 0.001991 0.216997
v 0.178382 0.133793 0.216997
v 0.189373 0.098572 -0.035534
v 0.189373 0.037213 -0.035534
v 0.189373 0.037213 0.035535
v 0.189373 0.098572 0.035535
vn 0.0231 -0.4955 -0.8683
vn -0.0029 -0.9749 -0.2225
vn -0.0048 -0.7818 0.6235
vn -0.0031 -0.0000 1.0000
vn 0.0010 0.7818 0.6235
vn 0.0043 0.9749 -0.2225
vn 0.0266 0.4950 -0.8685
vn 0.8519 0.4060 -0.3309
vn 0.2230 0.9707 -0.0892
vn -0.6059 0.7566 0.2460
vn -0.9260 -0.0000 0.3774
vn -0.6059 -0.7566 0.2460
vn 0.2230 -0.9707 -0.0892
vn 0.8519 -0.4060 -0.3309
vn 0.0987 -0.9708 -0.2184
vn -0.2608 -0.7573 0.5987
vn -0.3965 -0.0000 0.9180
vn -0.2608 0.7573 0.5987
vn 0.0987 0.9708 -0.2184
vn 0.3901 0.4138 -0.8225
vn 0.3901 -0.4138 -0.8225
vn 0.0179 -0.4962 0.8680
vn -0.0043 -0.9749 0.2225
vn -0.0010 -0.7818 -0.6235
vn 0.0031 -0.0000 -1.0000
vn 0.0048 0.7818 -0.6235
vn 0.0029 0.9749 0.2225
vn 0.0214 0.4957 0.8682
vn 0.8519 0.4060 0.3309
vn 0.2230 0.9707 0.0892
vn -0.6059 0.7566 -0.2460
vn -0.9260 -0.0000 -0.3774
vn -0.6059 -0.7566 -0.2460
vn 0.2230 -0.9707 0.0892
vn 0.8519 -0.4060 0.3309
vn 0.0987 -0.9708 0.2184
vn -0.2608 -0.7573 -0.5987
vn -0.3965 -0.0000 -0.9180
vn -0.2608 0.7573 -0.5987
vn 0.0987 0.9708 0.2184
vn 0.3901 0.4138 0.8225
vn 0.3901 -0.4138 0.8225
vn -1.0000 -0.0000 -0.0000
vn 0.0332 -0.0000 -0.9994
vn 0.5423 0.8402 -0.0000
vn 0.0332 -0.0000 0.9994
vn 0.0112 -0.9999 -0.0000
vn 0.0112 0.9999 -0.0000
vn 1.0000 -0.0000 -0.0000
vn 0.5988 -0.0000 -0.8009
vn 0.5987 -0.0000 0.8009
vn 0.5423 -0.8402 -0.0000
vn 0.9010 0.4339 -0.0000
vn 0.2225 0.9749 -0.0000
vn -0.6235 0.7818 -0.0000
vn -0.6235 -0.7818 -0.0000
vn 0.2225 -0.9749 -0.0000
vn 0.9010 -0.4339 -0.0000
vt 1.000000 0.500000
vt 1.000000 1.000000
vt 0.857143 1.000000
vt 0.857143 0.500000
vt 0.714286 1.000000
vt 0.714286 0.500000
vt 0.571429 1.000000
vt 0.571429 0.500000
vt 0.428571 1.000000
vt 0.428571 0.500000
vt 0.285714 1.000000
vt 0.285714 0.500000
vt 0.142857 1.000000
vt 0.142857 0.500000
vt 0.000000 1.000000
vt 0.000000 0.500000
vt 0.142857 0.750000
vt 0.000000 0.750000
vt 0.285714 0.750000
vt 0.428571 0.750000
vt 0.571429 0.750000
vt 0.714286 0.750000
vt 0.857143 0.750000
vt 1.000000 0.750000
vt 0.375000 0.000000
vt 0.625000 0.000000
vt 0.625000 0.250000
vt 0.375000 0.250000
vt 0.625000 0.500000
vt 0.375000 0.500000
vt 0.547920 0.523409
vt 0.547920 0.726591
vt 0.375000 0.750000
vt 0.625000 0.750000
vt 0.625000 1.000000
vt 0.375000 1.000000
vt 0.125000 0.500000
vt 0.125000 0.750000
vt 0.875000 0.500000
vt 0.875000 0.750000
vt 0.452080 0.523409
vt 0.452080 0.726591
s 0
usemtl Material.012
f 27/1/1 1/2/1 3/3/1 2/4/1
f 2/4/2 3/3/2 5/5/2 4/6/2
f 4/6/3 5/5/3 7/7/3 6/8/3
f 6/8/4 7/7/4 9/9/4 8/10/4
f 8/10/5 9/9/5 11/11/5 10/12/5
f 10/12/6 11/11/6 13/13/6 12/14/6
f 12/14/7 13/13/7 1/15/7 27/16/7
f 14/15/8 20/13/8 26/17/8 27/18/8
f 20/13/9 19/11/9 25/19/9 26/17/9
f 19/11/10 18/9/10 24/20/10 25/19/10
f 18/9/11 17/7/11 23/21/11 24/20/11
f 17/7/12 16/5/12 22/22/12 23/21/12
f 16/5/13 15/3/13 21/23/13 22/22/13
f 15/3/14 14/2/14 27/24/14 21/23/14
f 22/22/15 21/23/15 2/4/15 4/6/15
f 23/21/16 22/22/16 4/6/16 6/8/16
f 24/20/17 23/21/17 6/8/17 8/10/17
f 25/19/18 24/20/18 8/10/18 10/12/18
f 26/17/19 25/19/19 10/12/19 12/14/19
f 27/18/20 26/17/20 12/14/20
f 21/23/21 27/1/21 2/4/21
f 54/1/22 29/4/22 30/3/22 28/2/22
f 29/4/23 31/6/23 32/5/23 30/3/23
f 31/6/24 33/8/24 34/7/24 32/5/24
f 33/8/25 35/10/25 36/9/25 34/7/25
f 35/10/26 37/12/26 38/11/26 36/9/26
f 37/12/27 39/14/27 40/13/27 38/11/27
f 39/14/28 54/16/28 28/15/28 40/13/28
f 41/15/29 54/18/29 53/17/29 47/13/29
f 47/13/30 53/17/30 52/19/30 46/11/30
f 46/11/31 52/19/31 51/20/31 45/9/31
f 45/9/32 51/20/32 50/21/32 44/7/32
f 44/7/33 50/21/33 49/22/33 43/5/33
f 43/5/34 49/22/34 48/23/34 42/3/34
f 42/3/35 48/23/35 54/24/35 41/2/35
f 49/22/36 31/6/36 29/4/36 48/23/36
f 50/21/37 33/8/37 31/6/37 49/22/37
f 51/20/38 35/10/38 33/8/38 50/21/38
f 52/19/39 37/12/39 35/10/39 51/20/39
f 53/17/40 39/14/40 37/12/40 52/19/40
f 54/16/41 39/14/41 53/17/41
f 48/23/42 29/4/42 54/24/42
f 62/31/45 60/32/45 70/32/45 67/31/45
f 68/41/49 67/31/49 70/32/49 69/42/49
f 61/41/50 62/31/50 67/31/50 68/41/50
f 60/32/51 59/42/51 69/42/51 70/32/51
f 59/42/52 61/41/52 68/41/52 69/42/52
f 41/15/53 47/13/53 20/13/53 14/15/53
f 47/13/54 46/11/54 19/11/54 20/13/54
f 46/11/55 45/9/55 18/9/55 19/11/55
f 45/9/43 44/7/43 17/7/43 18/9/43
f 44/7/56 43/5/56 16/5/56 17/7/56
f 43/5/57 42/3/57 15/3/57 16/5/57
f 42/3/58 41/2/58 14/2/58 15/3/58
usemtl Material.018
f 55/25/43 56/26/43 58/27/43 57/28/43
f 57/28/44 58/27/44 63/29/44 64/30/44
f 65/33/46 66/34/46 56/35/46 55/36/46
f 57/37/47 64/30/47 65/33/47 55/38/47
f 63/29/48 58/39/48 56/40/48 66/34/48
f 62/31/49 61/41/49 64/30/49 63/29/49
f 61/41/49 59/42/49 65/33/49 64/30/49
f 60/32/49 62/31/49 63/29/49 66/34/49
f 59/42/49 60/32/49 66/34/49 65/33/49
