# Blender 4.1.1
# www.blender.org
mtllib mug.mtl
o Cylinder
v 0.000000 0.019525 -0.172921
v 0.000000 0.502452 -0.134263
v 0.122273 0.019525 -0.122273
v 0.094938 0.502452 -0.094938
v 0.172921 0.019525 0.000000
v 0.134263 0.502452 0.000000
v 0.122273 0.019525 0.122273
v 0.094938 0.502452 0.094938
v 0.000000 0.019525 0.172921
v 0.000000 0.502452 0.134263
v -0.122273 0.019525 0.122273
v -0.094938 0.502452 0.094938
v -0.172921 0.019525 0.000000
v -0.134263 0.502452 0.000000
v -0.122273 0.019525 -0.122273
v -0.094938 0.502452 -0.094938
v 0.122273 0.502452 -0.122273
v 0.000000 0.502452 -0.172921
v 0.172921 0.502452 0.000000
v 0.122273 0.502452 0.122273
v 0.000000 0.502452 0.172921
v -0.122273 0.502452 0.122273
v -0.172921 0.502452 0.000000
v -0.122273 0.502452 -0.122273
v 0.094938 0.069430 -0.094938
v 0.000000 0.069430 -0.134263
v 0.134263 0.069430 0.000000
v 0.094938 0.069430 0.094938
v 0.000000 0.069430 0.134263
v -0.094938 0.069430 0.094938
v -0.134263 0.069430 0.000000
v -0.094938 0.069430 -0.094938
v 0.000000 0.062845 -0.165416
v 0.027236 0.077799 -0.165416
v 0.027236 0.107708 -0.165416
v 0.000000 0.122662 -0.165416
v -0.027236 0.099812 -0.165416
v -0.027236 0.068363 -0.165416
v 0.000000 0.092430 -0.287881
v 0.027236 0.105151 -0.278638
v 0.027236 0.130594 -0.260153
v 0.000000 0.143316 -0.250911
v -0.027236 0.130594 -0.260153
v -0.027236 0.105151 -0.278638
v 0.000000 0.196605 -0.363569
v 0.027236 0.201464 -0.348614
v 0.027236 0.211182 -0.318704
v 0.000000 0.216041 -0.303749
v -0.027236 0.211182 -0.318704
v -0.027236 0.201464 -0.348614
v -0.000000 0.325372 -0.363569
v 0.027236 0.320513 -0.348614
v 0.027236 0.310795 -0.318704
v -0.000000 0.305936 -0.303749
v -0.027236 0.310795 -0.318704
v -0.027236 0.320513 -0.348614
v -0.000000 0.429547 -0.287881
v 0.027236 0.416826 -0.278638
v 0.027236 0.391383 -0.260153
v -0.000000 0.378661 -0.250910
v -0.027236 0.391383 -0.260153
v -0.027236 0.416826 -0.278638
v -0.000000 0.459132 -0.165416
v 0.027236 0.444178 -0.165416
v 0.027236 0.414269 -0.165416
v -0.000000 0.399315 -0.165416
v -0.027236 0.422165 -0.165416
v -0.027236 0.453614 -0.165416
vn 0.3827 -0.0000 -0.9239
vn 0.9239 -0.0000 -0.3827
vn 0.9239 -0.0000 0.3827
vn 0.3827 -0.0000 0.9239
vn -0.3827 -0.0000 0.9239
vn -0.9239 -0.0000 0.3827
vn -0.9239 -0.0000 -0.3827
vn -0.3827 -0.0000 -0.9239
vn -0.0000 -1.0000 -0.0000
vn -0.0000 1.0000 -0.0000
vn 0.4709 -0.8575 -0.2072
vn 1.0000 -0.0000 -0.0000
vn 0.4709 0.8575 0.2072
vn -0.5592 0.7972 0.2275
vn -1.0000 -0.0000 -0.0000
vn -0.3456 -0.9032 -0.2544
vn 0.4813 -0.5152 -0.7091
vn 0.4813 0.5152 0.7091
vn -0.4813 0.5152 0.7091
vn -0.4813 -0.5152 -0.7091
vn 0.4813 -0.0000 -0.8766
vn 0.4813 -0.0000 0.8766
vn -0.4813 -0.0000 0.8766
vn -0.4813 -0.0000 -0.8766
vn 0.4813 0.5152 -0.7091
vn 0.4813 -0.5152 0.7091
vn -0.4813 -0.5152 0.7091
vn -0.4813 0.5152 -0.7091
vn 0.4709 0.8575 -0.2072
vn 0.4708 -0.8575 0.2072
vn -0.5592 -0.7972 0.2275
vn -0.3456 0.9032 -0.2544
vt 1.000000 0.500000
vt 1.000000 1.000000
vt 0.875000 1.000000
vt 0.875000 0.500000
vt 0.750000 1.000000
vt 0.750000 0.500000
vt 0.625000 1.000000
vt 0.625000 0.500000
vt 0.500000 1.000000
vt 0.500000 0.500000
vt 0.375000 1.000000
vt 0.375000 0.500000
vt 0.250000 1.000000
vt 0.250000 0.500000
vt 0.436346 0.250000
vt 0.381767 0.381767
vt 0.125000 1.000000
vt 0.125000 0.500000
vt 0.000000 1.000000
vt 0.000000 0.500000
vt 0.750000 0.490000
vt 0.919706 0.419706
vt 0.990000 0.250000
vt 0.919706 0.080294
vt 0.750000 0.010000
vt 0.580294 0.080294
vt 0.510000 0.250000
vt 0.580294 0.419706
vt 0.250000 0.436346
vt 0.419706 0.419706
vt 0.250000 0.490000
vt 0.490000 0.250000
vt 0.381767 0.118233
vt 0.419706 0.080294
vt 0.250000 0.063654
vt 0.250000 0.010000
vt 0.118233 0.118233
vt 0.080294 0.080294
vt 0.063654 0.250000
vt 0.010000 0.250000
vt 0.118233 0.381767
vt 0.080294 0.419706
vt 0.600000 0.500000
vt 0.700000 0.500000
vt 0.700000 0.666667
vt 0.600000 0.666667
vt 0.700000 0.833333
vt 0.600000 0.833333
vt 0.700000 1.000000
vt 0.600000 1.000000
vt 0.600000 -0.000000
vt 0.700000 -0.000000
vt 0.700000 0.166667
vt 0.600000 0.166667
vt 0.700000 0.333333
vt 0.600000 0.333333
vt 0.800000 0.500000
vt 0.800000 0.666667
vt 0.800000 0.833333
vt 0.800000 1.000000
vt 0.800000 -0.000000
vt 0.800000 0.166667
vt 0.800000 0.333333
vt 0.900000 0.500000
vt 0.900000 0.666667
vt 0.900000 0.833333
vt 0.900000 1.000000
vt 0.900000 -0.000000
vt 0.900000 0.166667
vt 0.900000 0.333333
vt 1.000000 0.666667
vt 1.000000 0.833333
vt 1.000000 -0.000000
vt 1.000000 0.166667
vt 1.000000 0.333333
vt -0.000000 0.500000
vt 0.100000 0.500000
vt 0.100000 0.666667
vt -0.000000 0.666667
vt 0.100000 0.833333
vt -0.000000 0.833333
vt 0.100000 1.000000
vt -0.000000 1.000000
vt -0.000000 -0.000000
vt 0.100000 -0.000000
vt 0.100000 0.166667
vt -0.000000 0.166667
vt 0.100000 0.333333
vt -0.000000 0.333333
s 0
usemtl Material.004
f 1/1/1 18/2/1 17/3/1 3/4/1
f 3/4/2 17/3/2 19/5/2 5/6/2
f 5/6/3 19/5/3 20/7/3 7/8/3
f 7/8/4 20/7/4 21/9/4 9/10/4
f 9/10/5 21/9/5 22/11/5 11/12/5
f 11/12/6 22/11/6 23/13/6 13/14/6
f 6/15/6 4/16/6 25/16/6 27/15/6
f 13/14/7 23/13/7 24/17/7 15/18/7
f 15/18/8 24/17/8 18/19/8 1/20/8
f 1/21/9 3/22/9 5/23/9 7/24/9 9/25/9 11/26/9 13/27/9 15/28/9
f 2/29/10 4/16/10 17/30/10 18/31/10
f 4/16/10 6/15/10 19/32/10 17/30/10
f 6/15/10 8/33/10 20/34/10 19/32/10
f 8/33/10 10/35/10 21/36/10 20/34/10
f 10/35/10 12/37/10 22/38/10 21/36/10
f 12/37/10 14/39/10 23/40/10 22/38/10
f 14/39/10 16/41/10 24/42/10 23/40/10
f 16/41/10 2/29/10 18/31/10 24/42/10
f 25/16/10 26/29/10 32/41/10 31/39/10 30/37/10 29/35/10 28/33/10 27/15/10
f 16/41/3 14/39/3 31/39/3 32/41/3
f 12/37/1 10/35/1 29/35/1 30/37/1
f 8/33/7 6/15/7 27/15/7 28/33/7
f 4/16/5 2/29/5 26/29/5 25/16/5
f 2/29/4 16/41/4 32/41/4 26/29/4
f 14/39/2 12/37/2 30/37/2 31/39/2
f 10/35/8 8/33/8 28/33/8 29/35/8
f 33/43/11 39/44/11 40/45/11 34/46/11
f 34/46/12 40/45/12 41/47/12 35/48/12
f 35/48/13 41/47/13 42/49/13 36/50/13
f 36/51/14 42/52/14 43/53/14 37/54/14
f 37/54/15 43/53/15 44/55/15 38/56/15
f 38/56/16 44/55/16 39/44/16 33/43/16
f 39/44/17 45/57/17 46/58/17 40/45/17
f 40/45/12 46/58/12 47/59/12 41/47/12
f 41/47/18 47/59/18 48/60/18 42/49/18
f 42/52/19 48/61/19 49/62/19 43/53/19
f 43/53/15 49/62/15 50/63/15 44/55/15
f 44/55/20 50/63/20 45/57/20 39/44/20
f 45/57/21 51/64/21 52/65/21 46/58/21
f 46/58/12 52/65/12 53/66/12 47/59/12
f 47/59/22 53/66/22 54/67/22 48/60/22
f 48/61/23 54/68/23 55/69/23 49/62/23
f 49/62/15 55/69/15 56/70/15 50/63/15
f 50/63/24 56/70/24 51/64/24 45/57/24
f 51/64/25 57/1/25 58/71/25 52/65/25
f 52/65/12 58/71/12 59/72/12 53/66/12
f 53/66/26 59/72/26 60/2/26 54/67/26
f 54/68/27 60/73/27 61/74/27 55/69/27
f 55/69/15 61/74/15 62/75/15 56/70/15
f 56/70/28 62/75/28 57/1/28 51/64/28
f 57/76/29 63/77/29 64/78/29 58/79/29
f 58/79/12 64/78/12 65/80/12 59/81/12
f 59/81/30 65/80/30 66/82/30 60/83/30
f 60/84/31 66/85/31 67/86/31 61/87/31
f 61/87/15 67/86/15 68/88/15 62/89/15
f 62/89/32 68/88/32 63/77/32 57/76/32
